<?xml version="1.0" encoding="utf-8" ?><svg xmlns="http://www.w3.org/2000/svg" xmlns:xlink="http://www.w3.org/1999/xlink" width="1024" height="1024" viewBox="0 0 1024 1024"><path fill="#FEBC08" d="M335.755 688.966C345.689 670.226 354.996 650.659 364.248 631.555L405.093 547.052C413.534 529.631 422.539 509.946 431.783 493.141L486.028 550.122L502.71 567.576C505.262 570.285 509.871 575.664 512.557 577.83C518.558 572.265 525.211 564.913 530.996 558.85L570.616 516.535C576.477 510.255 585.941 499.659 592.219 494.128C602.839 511.609 615.59 540.572 625.136 559.506L676.553 663.728C682.323 675.573 689.025 688.28 694.541 700.027C696.252 704.599 699.058 710.923 701.377 715.215C702.661 718.03 704.338 721.531 706.07 724.115L706.467 726.028C705.83 726.563 639.842 726.207 631.934 726.217L413.314 726.304L348.014 726.357L328.235 726.403C325.872 726.411 320.738 726.662 318.605 726.239L318.503 725.02C319.255 723.541 321.688 718.876 322.179 717.535C322.342 717.195 322.506 716.855 322.67 716.515C323.982 713.915 325.176 711.258 326.251 708.551C326.752 707.788 326.783 707.683 327.126 706.818L327.389 706.654C327.772 705.271 329.522 701.357 330.244 700.315C331.806 697.365 333.005 694.997 334.398 691.955C334.934 690.884 335.371 690.106 335.755 688.966Z"/><path fill="#FEBC08" d="M512.675 300.323C514.808 302.485 526.009 327.91 528.079 332.355L580.082 445.205C584.549 454.897 591.673 468.049 595.322 477.639C591.807 481.665 586.833 486.53 583.045 490.527L548.661 526.166C538.027 537.207 523.601 553.768 512.79 563.666L512.109 564.004C510.041 563.644 500.243 551.988 497.933 549.533C483.281 534.037 468.832 518.349 454.591 502.475C447.987 495.233 437.901 483.686 430.578 477.533C435.372 466.576 441.431 454.927 446.511 443.922C457.982 418.476 469.673 393.129 481.581 367.885C491.911 345.843 501.963 322.094 512.675 300.323Z"/><path fill="#FEBC08" d="M650.274 592.167C664.934 576.371 679.854 560.818 695.028 545.516L734.632 504.424L772.112 465.844C780.207 457.456 789.208 447.704 797.547 439.748L738.274 637.338L721 696.135C720.041 699.393 715.375 716.442 714.228 718.697C712.437 718.704 712.993 718.336 711.546 717.948C713.842 716.268 709.075 710.178 708.012 707.501C706.805 704.462 704.626 701.002 703.18 697.931C702.611 696.494 701.832 695.15 700.87 693.941C697.317 684.118 686.697 665.04 681.728 654.865C675.121 641.161 668.423 627.5 661.637 613.883C658.63 607.839 653.827 597.616 650.274 592.167Z"/><path fill="#FEBC08" d="M230.994 443.151L321.738 536.867C338.893 554.597 356.861 574.199 374.501 591.256C359.736 624.268 340.826 658.921 325.149 692.07C323.528 694.896 321.066 700.043 319.763 703.02C318.467 704.945 316.874 708.798 315.734 711.041C315.579 711.374 315.423 711.707 315.267 712.04C314.405 713.886 313.588 715.437 312.492 717.145L312.071 717.815L311.29 717.453C309.861 714.957 306.433 701.707 305.309 697.902L291.621 652.067L252.377 522.008C244.74 496.584 237.267 470.148 229.155 444.92L230.994 443.151Z"/><path fill="#FEBC08" d="M697.212 370.838C701.99 365.581 699.908 371.222 699.083 374.324C696.495 383.659 694.363 393.801 691.981 403.269C685.956 426.274 680.224 449.355 674.788 472.507L647.425 582.273C638.491 562.806 627.771 542.797 618.367 523.321L605.622 496.745C602.488 490.208 599.473 483.329 595.441 477.331C601.103 472.029 606.232 466.277 611.619 460.689C622.929 449.045 634.128 437.293 645.214 425.435C662.188 407.608 681.036 389.307 697.212 370.838Z"/><path fill="#FEBD23" d="M697.212 370.838C701.99 365.581 699.908 371.222 699.083 374.324L698.847 373.729C698.53 372.91 698.212 372.136 697.661 371.442L697.212 370.838Z"/><path fill="#FEBC08" d="M325.301 372.324L327.762 371.082C346.818 392.294 368.683 413.41 388.5 434.118C401.654 447.863 416.801 464.468 430.47 477.265L378.94 582.348C376.628 571.419 373.295 560.458 370.59 549.564L349.079 465.036C341.517 435.918 333.94 400.912 325.301 372.324Z"/><path fill="#FEFFFE" fill-opacity="0.14117648" d="M325.149 692.07C329.11 690.996 328.843 686.754 332.613 685.227C337.487 683.253 335.707 687.299 335.755 688.966C335.371 690.106 334.934 690.884 334.398 691.955C333.619 691.815 332.787 691.357 332.277 691.318C330.741 692.223 331.581 693.46 330.829 695.021C330.15 696.432 326.29 698.651 327.204 699.898C327.575 700.403 329.134 700.074 330.244 700.315C329.522 701.357 327.772 705.271 327.389 706.654C326.972 706.323 320.389 703.169 319.763 703.02C321.066 700.043 323.528 694.896 325.149 692.07Z"/><path fill="#FEFFFE" fill-opacity="0.88235295" d="M700.87 693.941C701.832 695.15 702.611 696.494 703.18 697.931C701.912 705.489 710.778 707.843 701.377 715.215C699.058 710.923 696.252 704.599 694.541 700.027L694.887 699.812C696.554 698.798 699.348 696.514 700.342 694.787L700.87 693.941Z"/><path fill="#FEFFFE" fill-opacity="0.96862745" d="M703.18 697.931C704.626 701.002 706.805 704.462 708.012 707.501C709.075 710.178 713.842 716.268 711.546 717.948C708.23 716.46 707.492 721.609 706.07 724.115C704.338 721.531 702.661 718.03 701.377 715.215C710.778 707.843 701.912 705.489 703.18 697.931Z"/><path fill="#FEFFFE" fill-opacity="0.74901962" d="M319.763 703.02C320.389 703.169 326.972 706.323 327.389 706.654L327.126 706.818C320.23 708.372 324.018 712.362 315.734 711.041C316.874 708.798 318.467 704.945 319.763 703.02Z"/><defs><linearGradient id="gradient_0" gradientUnits="userSpaceOnUse" x1="315.75806" y1="714.32935" x2="318.77954" y2="717.20642"><stop offset="0" stop-color="white" stop-opacity="0.82352942"/><stop offset="1" stop-color="white" stop-opacity="0.85882354"/></linearGradient></defs><path fill="url(#gradient_0)" d="M315.734 711.041C324.018 712.362 320.23 708.372 327.126 706.818C326.783 707.683 326.752 707.788 326.251 708.551C324.679 708.802 325.009 708.986 324.079 710.212C318.556 712.61 319.447 713.675 319.308 718.002C319.289 718.58 317.508 719.331 316.662 721.002C316.424 720.763 316.186 720.523 315.947 720.284L315.003 719.331C316.86 718.055 316.105 713.82 315.267 712.04C315.423 711.707 315.579 711.374 315.734 711.041Z"/><path fill="#FEFFFE" fill-opacity="0.89019608" d="M316.662 721.002C317.508 719.331 319.289 718.58 319.308 718.002C319.447 713.675 318.556 712.61 324.079 710.212C322.171 712.345 318.415 714.795 322.179 717.535C321.688 718.876 319.255 723.541 318.503 725.02C317.868 723.258 317.575 722.671 316.662 721.002Z"/><path fill="#FEFFFE" fill-opacity="0.40000001" d="M330.244 700.315C329.134 700.074 327.575 700.403 327.204 699.898C326.29 698.651 330.15 696.432 330.829 695.021C331.581 693.46 330.741 692.223 332.277 691.318C332.787 691.357 333.619 691.815 334.398 691.955C333.005 694.997 331.806 697.365 330.244 700.315Z"/><path fill="#FEFFFE" fill-opacity="0.98823529" d="M324.079 710.212C325.009 708.986 324.679 708.802 326.251 708.551C325.176 711.258 323.982 713.915 322.67 716.515C322.506 716.855 322.342 717.195 322.179 717.535C318.415 714.795 322.171 712.345 324.079 710.212Z"/><path fill="#FEFFFE" fill-opacity="0.98039216" d="M315.267 712.04C316.105 713.82 316.86 718.055 315.003 719.331L312.071 717.815L312.492 717.145C313.588 715.437 314.405 713.886 315.267 712.04Z"/><path fill="#FEBD23" d="M325.301 372.324C325.212 371.783 324.3 368.44 324.849 368.307C325.412 368.463 327.176 370.531 327.762 371.082L325.301 372.324Z"/><path fill="#FEBD23" d="M229.155 444.92C228.653 441.592 227.251 438.628 230.994 443.151L229.155 444.92Z"/></svg>