<?xml version="1.0" encoding="utf-8" ?><svg xmlns="http://www.w3.org/2000/svg" xmlns:xlink="http://www.w3.org/1999/xlink" width="1024" height="1024" viewBox="0 0 1024 1024"><path fill="#FD572A" d="M495.99 287.073C501.429 298.918 507.412 315.693 512.595 328.264L557.745 437.992C563.95 452.871 569.88 468.31 576.547 482.968C579.249 480.678 583.257 475.895 585.812 473.05L602.464 454.447C622.718 431.81 643.853 407.537 664.414 385.405C652.877 423.392 642.455 462.152 631.017 500.028C624.7 520.432 618.509 540.874 612.444 561.354C609.153 572.485 605.232 585.08 602.766 596.339C608.844 592.726 620.316 584.402 626.683 580.154C644.667 568.253 662.585 556.251 680.436 544.151C682.771 544.523 681.845 543.961 683.384 545.913C674.59 558.317 665.118 574.331 656.748 587.372L580.081 707.398C573.115 718.091 566.482 729.711 559.301 740.075C562.055 728.08 567.332 712.005 570.846 699.842L589.508 634.297C584.327 637.738 580.882 641.889 576.406 645.842C568.244 653.051 559.458 662.469 551.09 669.188C553.037 644.252 553.887 616.802 555.104 591.743C548.333 604.588 540.594 619.683 534.59 632.705C531.847 621.668 529.507 609.451 526.947 598.211L513.254 539.648C510.795 528.953 507.34 509.747 503.787 500.244C500.151 521.815 497.264 543.7 493.727 565.309C490.602 584.398 486.829 603.581 484.759 622.8C474.998 610.942 465.554 591.572 455.249 579.76C456.242 589.857 459.798 604.401 461.864 614.697C465.486 632.741 468.885 651.492 473.308 669.297C463.053 662.95 452.408 654.492 441.442 647.506C442.781 655.407 446.664 669.307 448.742 677.632C453.797 698.087 459.068 718.489 464.554 738.833C458.766 732.034 453.192 723.952 447.621 716.797L411.107 669.936L337.352 575.329C355.25 583.847 373.871 590.233 392.185 597.749C398.199 600.217 404.098 602.792 410.192 605.076C409.241 596.228 406.936 584.498 405.267 575.634L397.388 534.212C391.159 501.547 385.224 466.887 378.193 434.598C386.85 445.088 395.062 457.134 403.306 468.103C417.74 487.049 432.061 506.08 446.269 525.196C447.728 520.235 449.866 507.767 451.104 502.01C455.142 483.641 459.023 465.238 462.746 446.803L495.99 287.073Z"/><path fill="#FC6E40" d="M680.436 544.151C682.722 542.506 685.062 540.937 687.452 539.447C686.034 541.985 685.128 543.537 683.384 545.913C681.845 543.961 682.771 544.523 680.436 544.151Z"/></svg>