<?xml version="1.0" encoding="utf-8" ?><svg xmlns="http://www.w3.org/2000/svg" xmlns:xlink="http://www.w3.org/1999/xlink" width="1024" height="1024" viewBox="0 0 1024 1024"><path fill="#FEAE0A" d="M720.142 153.623C721.982 153.492 721.528 153.193 722.831 153.846C722.891 157.008 718.433 162.446 716.795 165.3L673.56 239.433L591.772 380.097L574.565 409.48C571.979 413.849 566.346 422.65 564.784 426.929C606.326 411.835 647.862 397.284 689.684 382.978C697.388 380.343 705.811 376.6 713.633 374.792C709.607 380.512 702.145 389.032 697.486 394.758C687.004 407.764 676.444 420.709 665.807 433.59L584.522 534.14C577.65 542.589 570.713 550.986 563.713 559.329C560.247 563.473 552.765 572.012 550.345 576.481C556.182 573.875 564.699 568.826 570.62 565.664L619.123 539.302C624.692 536.292 634.673 530.362 640.232 528.166L640.453 528.679C639.224 532.578 612.354 565.823 608.001 571.614L474.778 747.113C443.167 787.931 411.853 828.979 380.838 870.252C368.926 886.354 356.134 901.966 344.422 918.26C340.589 923.593 336.512 929.321 332.27 934.309C333.694 927.53 337.243 918.409 339.664 911.668C343.204 901.851 346.678 892.01 350.088 882.147L391.927 764.221L451.639 595.725C461.899 566.662 472.885 532.348 484.5 504.02C475.89 510.07 467.017 515.252 458.238 520.995L393.666 562.757C382.866 569.777 372.102 576.851 361.374 583.98C355.569 587.833 349.46 592.216 343.481 595.64L343.608 595.079C344.622 590.384 348.045 582.557 349.831 577.801L363.567 541.37C378.162 501.906 393.006 462.534 408.099 423.257L463.834 275.037L482.468 224.885C485.386 217.163 488.74 207.633 492.103 200.198C498 198.049 511.566 195.693 517.981 194.436L564.162 185.469L619.104 174.223C652.866 167.765 686.547 160.898 720.142 153.623Z"/></svg>