<?xml version="1.0" encoding="utf-8" ?><svg xmlns="http://www.w3.org/2000/svg" xmlns:xlink="http://www.w3.org/1999/xlink" width="1024" height="1024" viewBox="0 0 1024 1024"><path fill="#EBEAEA" d="M438.926 338.02C461.501 277.706 478.758 214.638 501.776 154.346C503.663 149.405 508.384 129.093 512.256 127.024C512.466 128.126 512.701 129.934 513.38 130.847C518.751 138.075 521.361 148.946 524.523 157.367C531.473 175.875 537.23 194.788 543.625 213.455L567.413 282.899C572.827 298.623 578.307 313.716 583.238 329.602C583.746 331.469 583.992 332.349 584.74 334.117C585.149 335.053 585.35 335.192 585.966 336.029C588.907 336.919 593.015 334.253 595.948 332.826L598.134 331.969C647.973 306.202 699.181 281.774 748.956 255.837C761.171 249.472 775.041 243.047 786.852 236.395C783.342 242.604 780.218 250.979 776.874 257.687L745.756 319.467L711.283 387.96C703.21 403.874 693.269 422.55 686.325 438.709C707.189 447.168 731.521 454.904 752.971 462.126L854.328 496.855C868.909 501.928 885.137 507.044 899.397 512.499C892.411 516.6 867.458 524.325 858.749 527.269L754.635 562.305C742.48 566.326 693.492 580.732 686.384 587.194C687.48 590.955 691.137 598.488 692.926 602.386C698.135 613.847 703.63 625.175 709.407 636.359L758.325 732.454C767.432 750.285 776.993 765.868 784.135 784.66C769.244 776.683 753.247 769.462 738.013 762.002L663.783 725.18C647.818 717.245 632.244 708.656 616.214 700.888C607.1 696.471 595.9 690.693 586.184 687.938C560.959 758.682 536.573 829.722 513.032 901.044C507.74 889.359 504.71 879.454 500.65 867.275L490.245 836.641L460.145 748.726C453.349 728.764 446.511 706.684 438.733 687.3C423.926 692.703 402.99 703.804 388.652 711.101C364.006 723.813 339.271 736.351 314.448 748.715C299.968 756.092 285.33 763.154 270.544 769.896C261.026 774.293 246.361 780.535 237.956 785.704C244.811 773.206 251.29 759.921 257.82 747.2L288.673 687.441C297.742 669.911 306.71 652.329 315.578 634.697C321.324 623.323 334.653 597.837 336.962 585.911C327.379 580.161 301.534 572.636 289.866 568.806L189.598 535.299C173.208 529.829 156.813 524.559 140.695 518.307C137.548 517.087 130.451 514.825 129.423 511.528C130.427 509.628 132.338 508.716 134.396 507.974C147.948 503.093 162.108 498.979 175.708 494.322C210.933 482.156 246.258 470.278 281.678 458.691C298.098 453.256 322.48 445.904 337.387 438.809C334.876 425.627 314.804 387.974 307.585 374.112L281.023 322.259L250.612 261.621C247.515 255.582 240.494 240.971 237.065 236.049C257.711 245.93 277.47 256.472 297.78 266.98L358.328 298.084C383.086 311 413.332 326.795 438.926 338.02Z"/><path fill="#EBEAEA" fill-opacity="0.21568628" d="M583.238 329.602C583.326 327.476 582.839 325.073 584.612 323.658C588.732 320.367 595.19 324.572 597.68 328.103C598.316 329.004 598.189 330.846 598.134 331.969L595.948 332.826C593.931 328.474 590.024 329.444 586.169 330.838C585.054 331.734 585.052 332.68 584.74 334.117C583.992 332.349 583.746 331.469 583.238 329.602Z"/><path fill="#EBEAEA" fill-opacity="0.27843139" d="M584.74 334.117C585.052 332.68 585.054 331.734 586.169 330.838C590.024 329.444 593.931 328.474 595.948 332.826C593.015 334.253 588.907 336.919 585.966 336.029C585.35 335.192 585.149 335.053 584.74 334.117Z"/></svg>